HIERARCHY
ROOT Bip001_Pelvis
{
  OFFSET 34.4345 95.6767 -26.8758
  CHANNELS 6 Xposition Yposition Zposition Zrotation Xrotation Yrotation
  JOINT Bip001_Spine
  {
    OFFSET 1.4188e-005 10.2191 -0.0116013
    CHANNELS 3 Zrotation Xrotation Yrotation
    JOINT Bip001_L_Thigh
    {
      OFFSET 11.0458 -10.2192 0.0116197
      CHANNELS 3 Zrotation Xrotation Yrotation
      JOINT Bip001_L_Calf
      {
        OFFSET -0.707118 -44.0221 0.360014
        CHANNELS 3 Zrotation Xrotation Yrotation
        JOINT Bip001_L_Foot
        {
          OFFSET -0.651902 -40.5938 -3.56146
          CHANNELS 3 Zrotation Xrotation Yrotation
          JOINT Bip001_L_Toe0
          {
            OFFSET 0.0530839 -10.2181 13.1504
            CHANNELS 3 Zrotation Xrotation Yrotation
            End Site
            {
              OFFSET -1.02532e-005 0 7.55606
            }
          }
        }
      }
    }
    JOINT Bip001_R_Thigh
    {
      OFFSET -11.0458 -10.2191 0.0115893
      CHANNELS 3 Zrotation Xrotation Yrotation
      JOINT Bip001_R_Calf
      {
        OFFSET 0.706994 -44.0221 0.35984
        CHANNELS 3 Zrotation Xrotation Yrotation
        JOINT Bip001_R_Foot
        {
          OFFSET 0.651786 -40.5938 -3.5613
          CHANNELS 3 Zrotation Xrotation Yrotation
          JOINT Bip001_R_Toe0
          {
            OFFSET -0.0531479 -10.2181 13.1504
            CHANNELS 3 Zrotation Xrotation Yrotation
            End Site
            {
              OFFSET -1.02894e-005 0 7.55606
            }
          }
        }
      }
    }
    JOINT Bip001_Spine1
    {
      OFFSET 1.87041e-005 14.5736 1.08638
      CHANNELS 3 Zrotation Xrotation Yrotation
      JOINT Bip001_Spine2
      {
        OFFSET 2.24614e-005 14.5058 -1.69078
        CHANNELS 3 Zrotation Xrotation Yrotation
        JOINT Bip001_Neck
        {
          OFFSET 2.20278e-005 15.3945 -0.489414
          CHANNELS 3 Zrotation Xrotation Yrotation
          JOINT Bip001_L_Clavicle
          {
            OFFSET 6.06036 -0.000579998 0.00836775
            CHANNELS 3 Zrotation Xrotation Yrotation
            JOINT Bip001_L_UpperArm
            {
              OFFSET 11.5509 -0.0600302 0.00193952
              CHANNELS 3 Zrotation Xrotation Yrotation
              JOINT Bip001_L_Forearm
              {
                OFFSET 25.9523 0.0806089 -2.15551
                CHANNELS 3 Zrotation Xrotation Yrotation
                JOINT Bip001_L_Hand
                {
                  OFFSET 32.2475 0.153767 1.63968
                  CHANNELS 3 Zrotation Xrotation Yrotation
                  JOINT Bip001_L_Finger0
                  {
                    OFFSET 6.04639 -2.20976 5.90322
                    CHANNELS 3 Zrotation Xrotation Yrotation
                    End Site
                    {
                      OFFSET 4.22375 -1.43895 0.606485
                    }
                  }
                  JOINT Bip001_L_Finger1
                  {
                    OFFSET 11.0826 -0.704819 -0.198153
                    CHANNELS 3 Zrotation Xrotation Yrotation
                    End Site
                    {
                      OFFSET 6.20027 -0.397518 -0.0787166
                    }
                  }
                }
              }
            }
          }
          JOINT Bip001_R_Clavicle
          {
            OFFSET -6.06037 -0.000563197 0.00835105
            CHANNELS 3 Zrotation Xrotation Yrotation
            JOINT Bip001_R_UpperArm
            {
              OFFSET -11.5509 -0.0599978 0.00190698
              CHANNELS 3 Zrotation Xrotation Yrotation
              JOINT Bip001_R_Forearm
              {
                OFFSET -25.9523 0.0806822 -2.15589
                CHANNELS 3 Zrotation Xrotation Yrotation
                JOINT Bip001_R_Hand
                {
                  OFFSET -32.2475 0.153859 1.63989
                  CHANNELS 3 Zrotation Xrotation Yrotation
                  JOINT Bip001_R_Finger0
                  {
                    OFFSET -6.04641 -2.20976 5.90317
                    CHANNELS 3 Zrotation Xrotation Yrotation
                    End Site
                    {
                      OFFSET -4.22376 -1.43895 0.60647
                    }
                  }
                  JOINT Bip001_R_Finger1
                  {
                    OFFSET -11.0826 -0.704794 -0.198182
                    CHANNELS 3 Zrotation Xrotation Yrotation
                    End Site
                    {
                      OFFSET -6.20028 -0.397504 -0.0787333
                    }
                  }
                }
              }
            }
          }
          JOINT Bip001_Head
          {
            OFFSET 1.09673e-005 11.2744 2.05948
            CHANNELS 3 Zrotation Xrotation Yrotation
            End Site
            {
              OFFSET 2.89576e-005 20.8808 -2.77728e-005
            }
          }
        }
      }
    }
  }
}
MOTION
Frames:	16
Frame Time:	0.04
35.1017 95.6951 -32.4657 -1.04344 -2.60821 -13.7583 0.710059 2.96847 -1.66099 4.26786 -0.185004 15.3613 -0.230555 9.62803 9.09691 1.53651 -5.39575 0.0439025 1.37861 -4.82814 -0.378682 -6.04042 -6.74259 2.96682 -0.135723 10.6634 0.919399 -2.85848 -5.86816 4.77389 2.5404 -9.07704 3.45483 1.50862 5.90355 -3.36539 1.50862 5.90351 -3.36539 5.72892 -4.68265 4.76336 -24.7991 9.03349 -9.49982 -38.1526 29.7097 -7.47804 12.6243 -4.17716 -27.3652 10.8363 1.43936 -4.51328 3.18055e-015 -3.18055e-015 -1.59028e-015 -0 -3.18056e-015 -0 22.3612 9.39061 10.647 61.6208 23.2349 -8.99489 -26.4255 30.4054 13.7796 13.1445 -3.96584 7.10817 0 9.54166e-015 -0 -7.95139e-016 9.54167e-015 7.95139e-016 -2.1904 -5.6039 6.52762 
34.7156 95.6937 -32.3574 -1.12146 -2.6836 -14.3587 0.765169 2.96792 -1.7513 4.378 0.225674 17.0576 0.0248185 9.47901 8.088 1.33072 -5.40627 0.0436355 1.4442 -4.90827 -0.391194 -5.84261 -6.64521 3.59207 -0.058189 10.6639 0.711657 -2.78659 -6.08178 5.00362 2.44148 -8.80159 3.39549 1.6245 5.91689 -3.54933 1.6245 5.91691 -3.54934 6.23515 -4.43503 5.34999 -25.0377 9.07099 -10.1704 -39.3656 26.4739 -8.509 11.3416 -6.83145 -28.481 12.3245 1.45157 -4.36943 -0 0 3.18055e-015 -4.41391e-032 1.59028e-015 1.59028e-015 22.1753 8.95156 9.98688 63.6054 25.1499 -10.8025 -21.8781 27.0871 10.8725 17.2917 -4.79466 8.7206 3.18055e-015 -1.27222e-014 1.59028e-015 3.97569e-015 -1.27222e-014 1.59028e-015 -2.61306 -5.84125 7.32012 
34.3377 95.6831 -32.2502 -1.18858 -2.79494 -14.9895 0.809881 2.96551 -1.86952 4.48585 0.714063 18.6166 0.218863 9.31006 7.23217 1.09974 -5.42746 0.0426896 1.48079 -4.95228 -0.453248 -5.61362 -6.61374 4.36703 -0.0134844 10.864 0.60574 -2.81863 -6.33724 5.05346 2.42331 -8.76362 3.39659 1.72002 5.90728 -3.78853 1.72002 5.90729 -3.78854 6.92998 -3.79089 6.10193 -25.5333 8.9092 -11.3624 -40.5575 24.8446 -8.72366 9.87348 -9.60435 -30.5233 14.1449 1.29319 -4.71811 -3.18055e-015 -1.59028e-015 1.59028e-015 0 0 -0 21.8914 7.99312 8.97936 67.3401 29.4664 -14.6586 -20.5708 20.2634 9.18053 21.1143 -4.952 10.9631 -1.59028e-015 0 -4.77083e-015 -3.18055e-015 -3.18056e-015 -6.36111e-015 -3.37232 -6.5432 8.42395 
34.0455 95.6916 -32.1537 -1.23212 -2.84289 -15.3696 0.846095 2.9452 -2.05408 4.66964 1.17149 19.1122 0.0989737 9.12556 7.38507 0.0494181 -6.03115 0.0415479 1.18857 -4.45189 -0.218672 -5.45125 -6.51206 4.67596 -0.015171 10.8916 0.653414 -2.86031 -6.52609 5.22204 2.40782 -8.76532 3.45161 1.80105 5.85777 -4.15975 1.80105 5.85777 -4.15976 6.8918 -4.78965 6.56296 -25.4043 10.0517 -11.5356 -41.3355 25.6503 -8.15785 9.64212 -10.3264 -32.7537 14.5413 0.301904 -5.9889 9.54166e-015 -6.36111e-015 -0 6.36111e-015 -7.95139e-015 1.59028e-015 22.2644 8.50853 7.48195 68.6807 27.9957 -16.915 -22.2488 21.3708 9.7794 23.0776 -5.26503 14.7251 7.95139e-016 0 -0 -1.59028e-015 0 -1.59028e-015 -2.97541 -5.44014 8.71668 
33.8267 95.6938 -32.089 -1.22664 -2.82891 -15.5042 0.89026 2.91983 -2.29233 4.67648 1.47136 19.8539 0.114082 8.77734 6.74368 0.286802 -5.7516 0.0405791 1.16065 -4.7361 -0.106375 -5.35324 -6.43212 5.16197 0.0333029 10.8465 0.640412 -3.0044 -6.6503 5.07975 2.45273 -8.8718 3.45179 1.90057 5.80118 -4.63881 1.90058 5.80115 -4.63881 6.95129 -5.11417 7.36626 -25.4156 10.7248 -12.1785 -41.8055 28.2275 -7.18656 10.5167 -9.37034 -35.2856 14.638 0.26074 -6.48522 6.36111e-015 3.18055e-015 -2.38542e-015 6.36111e-015 3.97569e-015 -2.38542e-015 21.8432 8.08881 5.43317 67.9624 23.9333 -17.238 -23.9731 25.0378 11.7426 22.7315 -7.20424 17.0259 1.59028e-015 -3.18055e-015 1.59028e-015 1.59028e-015 0 1.59028e-015 -3.26214 -5.31333 9.54302 
33.6498 95.6773 -32.0096 -1.38828 -2.88207 -15.6347 0.964188 2.91452 -2.46819 4.90183 1.57595 20.2673 0.0590996 9.09639 6.50577 0.190321 -5.98535 0.0411524 1.04854 -4.74575 0.0311011 -5.1381 -6.27205 5.89721 0.0696902 10.8296 0.550854 -3.19608 -6.7054 4.72365 2.48941 -9.01666 3.53757 2.05817 5.78459 -4.9948 2.05731 5.7849 -4.99482 6.92083 -5.77186 8.09374 -25.3475 11.6347 -12.5012 -41.8388 32.0374 -6.20211 13.8433 -5.5892 -37.1889 12.872 -0.297533 -7.73744 3.18055e-015 -1.3418e-015 2.96313e-015 -3.78983e-032 5.28022e-016 4.11236e-015 21.3967 8.0001 3.28001 67.907 21.6463 -17.816 -25.8205 21.8009 13.294 18.9263 -9.17477 16.1603 7.95139e-016 3.18055e-015 -0 4.41391e-032 3.18056e-015 -7.95139e-016 -3.61609 -4.7357 10.2605 
33.5688 95.6473 -31.9367 -1.58394 -2.97588 -15.8747 1.0158 2.93263 -2.5371 5.14918 1.64647 20.5712 -0.0560108 9.5491 6.48112 0.192946 -6.28893 0.0437476 1.04972 -4.74632 0.0477798 -4.98877 -6.13073 6.15209 0.0930771 10.8408 0.572638 -3.29157 -6.77259 4.70371 2.52718 -9.126 3.56916 2.16369 5.81683 -5.13575 2.16615 5.81668 -5.13588 6.89678 -6.23054 8.76462 -25.0927 12.3433 -13.0476 -41.866 35.3583 -5.25195 18.9462 0.305525 -39.1025 10.243 -0.705858 -9.65608 6.36111e-015 0 3.18055e-015 3.18055e-015 0 3.97569e-015 21.4902 7.8991 1.67343 66.1811 15.5053 -18.1487 -28.4564 16.9122 17.4637 10.3284 -8.80352 13.6136 9.93923e-017 0 5.96354e-016 3.97569e-016 0 7.95139e-016 -4.0789 -4.48545 10.9561 
33.61 95.6249 -31.8531 -1.59297 -3.06559 -15.8852 1.01902 2.91264 -2.61499 5.15589 1.66298 20.4149 -0.113721 9.88867 6.74344 -0.0179111 -6.62754 0.0462011 0.919829 -4.57154 0.151002 -5.07133 -6.05738 6.06053 0.126804 10.9893 0.641798 -3.37144 -6.90699 4.76507 2.58674 -9.26917 3.58066 2.17053 5.77527 -5.2915 2.17022 5.77533 -5.29155 6.69457 -6.16362 9.67742 -24.5298 12.5496 -13.7592 -41.9333 38.5851 -3.86811 22.4569 3.93515 -41.7766 8.10907 -1.24699 -11.3473 3.18055e-015 1.59028e-015 -3.18055e-015 6.36111e-015 4.77083e-015 -3.18055e-015 21.7237 7.12962 -0.183709 63.0478 5.92485 -17.8639 -31.7119 12.5298 24.0439 1.53015 -8.52933 11.0641 -4.96962e-016 -2.38542e-015 -0 -1.78906e-015 -2.38542e-015 -0 -4.52273 -4.64032 11.8781 
33.6889 95.6072 -31.7366 -1.71516 -3.10198 -15.7735 1.02697 2.84903 -2.67488 5.2778 1.77802 20.1064 -0.351322 10.0428 6.80072 0.639341 -6.47742 0.048732 1.04013 -4.91704 0.0951819 -5.02063 -5.85982 6.08253 0.120219 11.0115 0.75691 -3.5257 -6.90776 4.58487 2.68161 -9.44961 3.52752 2.19076 5.64643 -5.41043 2.19077 5.64644 -5.41044 6.70143 -5.24537 10.6818 -24.2923 12.045 -14.8316 -42.7695 41.0904 -1.42605 23.0937 4.19657 -44.409 6.91758 -1.51485 -11.6588 -3.18055e-015 -3.18055e-015 -1.59028e-015 0 0 -3.18055e-015 21.6233 5.53353 -1.94839 59.2888 -5.0073 -17.2939 -35.5165 8.53097 32.6863 -3.64703 -9.49047 10.2523 7.15625e-015 7.95139e-016 -0 4.77083e-015 0 -0 -5.38892 -5.43381 13.0725 
33.827 95.5418 -31.5943 -1.94888 -3.20633 -15.4538 1.05758 2.74806 -2.74886 5.49757 1.70218 20.9124 -0.283908 10.8188 5.46294 1.43746 -6.56352 0.0516771 1.17418 -5.37497 0.0691529 -4.89798 -5.51204 6.0966 0.0284318 11.1165 0.778208 -3.70713 -6.93419 4.33651 2.77256 -9.68085 3.56235 2.24774 5.4417 -5.56044 2.24871 5.44164 -5.55712 6.755 -3.34878 11.836 -24.2821 10.7317 -16.3716 -44.2213 42.7223 1.90212 21.3103 2.6232 -46.6757 6.90795 -1.67336 -11.4664 -3.18055e-015 6.36111e-015 1.59028e-015 -3.18055e-015 6.36111e-015 1.59028e-015 21.5338 3.13008 -3.03956 53.8092 -17.6232 -17.32 -42.0381 9.10407 45.6765 -9.44139 -9.91221 10.0419 5.56597e-015 0 -1.59028e-015 3.18055e-015 1.59028e-015 -0 -6.79532 -6.71041 14.5828 
33.9125 95.4668 -31.3679 -2.52458 -3.30734 -15.4745 1.13347 2.70542 -2.68383 6.28779 1.65297 21.3021 -0.688059 12.1355 5.04292 1.7665 -7.38069 0.0637401 1.25422 -5.43246 -0.00937085 -4.41829 -5.07285 6.57487 -0.0634426 11.1109 1.14772 -4.14536 -6.76227 3.52508 2.8993 -10.0183 3.63769 2.40808 5.3539 -5.43146 2.40602 5.35435 -5.43302 6.42535 -2.91475 12.3634 -23.9053 10.4042 -16.723 -46.0174 43.0304 5.55688 19.8333 1.42215 -48.9859 6.40155 -1.21967 -10.5592 6.36111e-015 -4.77083e-015 6.36111e-015 3.18055e-015 -4.77083e-015 7.95139e-015 21.8217 2.44517 -3.42587 46.0497 -31.6726 -18.6682 -47.9567 10.0379 62.2764 -14.5384 -11.5352 10.0376 -5.56597e-015 -3.18055e-015 -3.18055e-015 -2.38542e-015 0 -4.77083e-015 -7.52702 -6.9096 15.1576 
34.2068 95.3261 -31.3825 -3.00346 -3.30949 -12.9011 1.16798 2.64955 -2.89141 7.22711 -0.0778419 17.0493 -1.27622 14.8715 6.85219 1.52328 -8.78407 0.0923228 0.985278 -5.18796 0.273191 -4.1003 -4.60588 4.78011 -0.191053 11.357 1.27472 -4.634 -6.78436 2.95798 3.06701 -10.4902 3.78212 2.50526 5.23667 -5.8434 2.47696 5.2362 -5.84512 6.12132 -2.65595 12.5132 -23.6678 10.161 -16.8792 -47.025 43.0206 8.77698 19.3029 1.47648 -50.4911 7.01123 -0.485495 -9.60592 -3.18055e-015 4.77083e-015 4.77083e-015 -3.18055e-015 3.18056e-015 1.59028e-015 21.97 2.22912 -3.06803 37.2411 -45.1889 -20.1312 -50.2829 9.77208 77.7131 -18.2483 -11.8101 10.1888 5.29669e-031 9.54166e-015 -3.18055e-015 0 9.54167e-015 -0 -8.29143 -7.34669 15.363 
34.5271 94.9581 -31.0001 -3.04884 -4.44854 -12.6124 0.929411 2.79039 -2.50934 7.41625 -0.00462735 17.4956 -1.47582 16.98 5.41634 4.04201 -8.74857 0.137438 1.58169 -6.29409 -0.1509 -4.25542 -4.80306 4.47878 -0.1397 14.3474 1.69497 -5.33579 -8.09784 2.18552 3.25284 -11.0076 3.9436 1.96696 5.53699 -5.07759 1.9769 5.53654 -5.07461 6.11724 -2.63182 12.1822 -23.4937 9.99089 -16.7841 -47.3324 43.7494 11.1634 19.2589 1.98893 -50.5583 7.78648 -0.041628 -9.09757 3.18055e-015 -1.59028e-015 7.95139e-016 3.18055e-015 0 -1.59028e-015 21.1511 2.43072 -2.66809 33.607 -52.0404 -17.7177 -51.7861 6.09479 86.4453 -20.6826 -12.5084 10.8174 -1.59028e-015 -9.54166e-015 3.18055e-015 -3.18055e-015 -9.54167e-015 -0 -9.15038 -7.42289 15.1561 
34.7517 94.4167 -30.8189 -3.58166 -5.18255 -10.8635 0.767179 2.89945 -2.36463 8.73196 -1.45456 15.9917 -2.2277 20.9974 5.01547 5.85175 -9.88634 0.237696 1.84063 -7.1947 -0.232431 -3.79947 -5.1343 3.50794 -0.0219675 17.4104 2.32657 -6.50986 -9.28995 0.756231 3.48361 -11.6155 4.10531 1.65681 5.76442 -4.77702 1.65681 5.76443 -4.77705 5.81681 -2.60436 11.5762 -23.1811 9.69316 -16.468 -47.3477 45.1987 13.0346 20.2133 2.82531 -49.2191 8.57083 0.142913 -9.36265 -6.36111e-015 -1.59028e-015 -7.15625e-015 -3.18055e-015 -1.59028e-015 -2.38542e-015 20.2498 2.96228 -1.17286 32.8528 -57.2369 -12.7543 -52.2569 2.04999 92.0982 -21.0092 -13.9711 11.1409 3.53112e-031 6.36111e-015 -3.18055e-015 -3.18055e-015 3.18056e-015 -6.36111e-015 -9.51919 -7.45147 14.5396 
34.8103 93.8175 -30.7215 -4.37712 -5.83187 -8.65079 0.65178 2.9583 -2.19911 10.5664 -3.1521 13.9931 -3.39103 25.24 4.73384 6.96151 -11.3191 0.366074 1.72956 -7.44126 -0.189861 -3.07887 -5.2699 3.50325 0.816827 20.1182 2.1341 -7.90751 -10.1442 -1.46149 3.71928 -12.2267 4.27085 1.41975 5.88915 -4.44063 1.41976 5.88916 -4.44064 5.51835 -2.62467 10.6393 -23.1003 9.3431 -15.7188 -47.4247 46.5716 14.5575 22.4074 4.10024 -47.4681 7.23932 0.495759 -8.97138 -6.36111e-015 0 1.59028e-015 -3.18055e-015 0 2.38542e-015 19.2209 3.81881 1.3304 36.0466 -60.3412 -3.18113 -50.0463 -0.0429508 94.2791 -24.0916 -13.9954 10.8226 2.64834e-031 -3.18055e-015 4.77083e-015 3.18055e-015 -3.18056e-015 4.77083e-015 -9.63717 -7.06724 13.5791 
34.823 93.0094 -30.6425 -5.2142 -6.61353 -5.81886 0.556615 3.05319 -1.97431 12.7133 -5.36204 14.3112 -3.5385 30.4076 2.30625 7.52189 -13.7149 0.553842 2.01134 -7.23079 -0.612053 -2.39232 -5.63007 2.76132 1.94605 23.5621 2.15442 -9.46219 -11.2498 -4.08696 3.87849 -12.6364 4.38548 1.2209 6.08518 -3.98679 1.22091 6.08518 -3.98679 5.56476 -2.97109 8.95176 -23.2927 9.11637 -14.5396 -47.0824 47.6385 14.7494 24.0156 5.35518 -44.7141 6.36723 0.439779 -8.50461 -6.36111e-015 0 -4.77083e-015 -9.54166e-015 1.59028e-015 -3.18055e-015 17.4278 5.32237 4.89411 43.5728 -62.6102 10.4359 -45.7987 -1.15611 95.3749 -25.0884 -12.455 10.6918 -8.82781e-032 3.18055e-015 1.59028e-015 -3.18055e-015 0 1.59028e-015 -9.94033 -6.39313 12.0009 
